<mxfile host="65bd71144e">
    <diagram id="GFclDaCIk4YAcfMqffFD" name="Page-1">
        <mxGraphModel dx="1577" dy="1097" grid="1" gridSize="10" guides="1" tooltips="1" connect="1" arrows="1" fold="1" page="1" pageScale="1" pageWidth="850" pageHeight="1100" math="0" shadow="0">
            <root>
                <mxCell id="0"/>
                <mxCell id="1" parent="0"/>
                <mxCell id="2" value="" style="strokeWidth=1;shadow=0;dashed=0;align=center;html=1;shape=mxgraph.mockup.containers.browserWindow;rSize=0;strokeColor=#666666;strokeColor2=#008cff;strokeColor3=#c4c4c4;mainText=,;recursiveResize=0;" parent="1" vertex="1">
                    <mxGeometry x="210" y="480" width="850" height="890" as="geometry"/>
                </mxCell>
                <mxCell id="3" value="Gamestopia" style="strokeWidth=1;shadow=0;dashed=0;align=center;html=1;shape=mxgraph.mockup.containers.anchor;fontSize=17;fontColor=#666666;align=left;" parent="2" vertex="1">
                    <mxGeometry x="60" y="12" width="170" height="26" as="geometry"/>
                </mxCell>
                <mxCell id="4" value="https://www.draw.io" style="strokeWidth=1;shadow=0;dashed=0;align=center;html=1;shape=mxgraph.mockup.containers.anchor;rSize=0;fontSize=17;fontColor=#666666;align=left;" parent="2" vertex="1">
                    <mxGeometry x="130" y="60" width="250" height="26" as="geometry"/>
                </mxCell>
                <mxCell id="569" value="Sign In" style="text;html=1;strokeColor=none;fillColor=none;align=left;verticalAlign=middle;whiteSpace=wrap;rounded=0;fontSize=22;" parent="2" vertex="1">
                    <mxGeometry x="325" y="320" width="130" height="50" as="geometry"/>
                </mxCell>
                <mxCell id="570" value="" style="html=1;shadow=0;dashed=0;shape=mxgraph.bootstrap.rrect;rSize=5;strokeColor=#000000;html=1;whiteSpace=wrap;fillColor=#FFFFFF;fontColor=#000000;fontSize=19;" parent="2" vertex="1">
                    <mxGeometry x="325" y="380" width="200" height="100" as="geometry"/>
                </mxCell>
                <mxCell id="571" value="Email" style="strokeColor=inherit;fillColor=inherit;gradientColor=inherit;fontColor=#B3B3B3;html=1;shadow=0;dashed=0;shape=mxgraph.bootstrap.topButton;rSize=5;perimeter=none;whiteSpace=wrap;resizeWidth=1;align=left;spacing=10;fontSize=17;" parent="570" vertex="1">
                    <mxGeometry width="200" height="52" relative="1" as="geometry"/>
                </mxCell>
                <mxCell id="573" value="Password" style="strokeColor=inherit;fillColor=inherit;gradientColor=inherit;fontColor=#B3B3B3;html=1;shadow=0;dashed=0;shape=mxgraph.bootstrap.bottomButton;rSize=5;perimeter=none;whiteSpace=wrap;resizeWidth=1;resizeHeight=0;align=left;spacing=10;fontSize=17;" parent="570" vertex="1">
                    <mxGeometry y="1" width="200" height="50" relative="1" as="geometry">
                        <mxPoint y="-50" as="offset"/>
                    </mxGeometry>
                </mxCell>
                <mxCell id="576" value="&lt;font color=&quot;#000000&quot; style=&quot;font-size: 16px;&quot;&gt;Sign in&lt;/font&gt;" style="rounded=1;whiteSpace=wrap;html=1;strokeColor=#000000;fontSize=16;fontColor=#B3B3B3;" parent="2" vertex="1">
                    <mxGeometry x="325" y="520" width="200" height="30" as="geometry"/>
                </mxCell>
                <mxCell id="577" value="Remember me" style="rounded=1;align=left;verticalAlign=middle;fontStyle=0;fontSize=12;labelPosition=right;verticalLabelPosition=middle;spacingLeft=10;html=1;shadow=0;dashed=0;" parent="2" vertex="1">
                    <mxGeometry x="325" y="490" width="12" height="12" as="geometry"/>
                </mxCell>
                <mxCell id="550" value="" style="group" parent="2" vertex="1" connectable="0">
                    <mxGeometry y="680" width="850" height="210" as="geometry"/>
                </mxCell>
                <mxCell id="160" value="" style="rounded=0;whiteSpace=wrap;html=1;" parent="550" vertex="1">
                    <mxGeometry width="850" height="210" as="geometry"/>
                </mxCell>
                <mxCell id="153" value="&lt;b&gt;&lt;font style=&quot;font-size: 16px;&quot;&gt;Follow Us&lt;/font&gt;&lt;/b&gt;" style="text;html=1;align=left;verticalAlign=middle;whiteSpace=wrap;rounded=0;" parent="550" vertex="1">
                    <mxGeometry x="611" y="30" width="120" height="30" as="geometry"/>
                </mxCell>
                <mxCell id="154" value="" style="shape=image;html=1;verticalAlign=top;verticalLabelPosition=bottom;labelBackgroundColor=#ffffff;imageAspect=0;aspect=fixed;image=https://cdn2.iconfinder.com/data/icons/social-media-2285/512/1_Facebook_colored_svg_copy-128.png;fillColor=none;strokeColor=none;" parent="550" vertex="1">
                    <mxGeometry x="614" y="72.5" width="27.5" height="27.5" as="geometry"/>
                </mxCell>
                <mxCell id="155" value="" style="shape=image;html=1;verticalAlign=top;verticalLabelPosition=bottom;labelBackgroundColor=#ffffff;imageAspect=0;aspect=fixed;image=https://cdn3.iconfinder.com/data/icons/2018-social-media-logotypes/1000/2018_social_media_popular_app_logo_twitter-128.png;fillColor=none;strokeColor=none;" parent="550" vertex="1">
                    <mxGeometry x="659" y="72.5" width="27.5" height="27.5" as="geometry"/>
                </mxCell>
                <mxCell id="156" value="" style="shape=image;html=1;verticalAlign=top;verticalLabelPosition=bottom;labelBackgroundColor=#ffffff;imageAspect=0;aspect=fixed;image=https://cdn4.iconfinder.com/data/icons/social-media-flat-7/64/Social-media_Youtube-128.png;fillColor=none;strokeColor=none;" parent="550" vertex="1">
                    <mxGeometry x="702" y="71.25" width="30" height="30" as="geometry"/>
                </mxCell>
                <mxCell id="158" value="" style="dashed=0;outlineConnect=0;html=1;align=center;labelPosition=center;verticalLabelPosition=bottom;verticalAlign=top;shape=mxgraph.weblogos.instagram;fillColor=none;strokeColor=none;" parent="550" vertex="1">
                    <mxGeometry x="747" y="72.5" width="29" height="27.5" as="geometry"/>
                </mxCell>
                <mxCell id="399" value="" style="verticalLabelPosition=bottom;shadow=0;dashed=0;align=center;html=1;verticalAlign=top;strokeWidth=1;shape=mxgraph.mockup.markup.line;strokeColor=#999999;fontSize=16;fontColor=#000000;fillColor=#808080;" parent="550" vertex="1">
                    <mxGeometry x="68" y="150" width="710" height="20" as="geometry"/>
                </mxCell>
                <mxCell id="400" value="&lt;b&gt;&lt;font style=&quot;font-size: 16px;&quot;&gt;Support&lt;/font&gt;&lt;/b&gt;" style="text;html=1;align=left;verticalAlign=middle;whiteSpace=wrap;rounded=0;" parent="550" vertex="1">
                    <mxGeometry x="70" y="30" width="120" height="30" as="geometry"/>
                </mxCell>
                <mxCell id="401" value="&lt;span style=&quot;font-size: 16px;&quot;&gt;&lt;b&gt;Corporate&lt;/b&gt;&lt;/span&gt;" style="text;html=1;align=left;verticalAlign=middle;whiteSpace=wrap;rounded=0;" parent="550" vertex="1">
                    <mxGeometry x="250" y="30" width="120" height="30" as="geometry"/>
                </mxCell>
                <mxCell id="402" value="&lt;b&gt;&lt;font style=&quot;font-size: 16px;&quot;&gt;Legal&lt;/font&gt;&lt;/b&gt;" style="text;html=1;align=left;verticalAlign=middle;whiteSpace=wrap;rounded=0;" parent="550" vertex="1">
                    <mxGeometry x="431" y="30" width="120" height="30" as="geometry"/>
                </mxCell>
                <mxCell id="406" value="Privacy Policy" style="text;html=1;strokeColor=none;fillColor=none;align=left;verticalAlign=middle;whiteSpace=wrap;rounded=0;fontSize=13;fontColor=#000000;" parent="550" vertex="1">
                    <mxGeometry x="431" y="60" width="150" height="30" as="geometry"/>
                </mxCell>
                <mxCell id="407" value="Terms &amp;amp; Conditions" style="text;html=1;strokeColor=none;fillColor=none;align=left;verticalAlign=middle;whiteSpace=wrap;rounded=0;fontSize=13;fontColor=#000000;" parent="550" vertex="1">
                    <mxGeometry x="431" y="80" width="150" height="30" as="geometry"/>
                </mxCell>
                <mxCell id="408" value="About Us" style="text;html=1;strokeColor=none;fillColor=none;align=left;verticalAlign=middle;whiteSpace=wrap;rounded=0;fontSize=13;fontColor=#000000;" parent="550" vertex="1">
                    <mxGeometry x="250" y="60" width="150" height="30" as="geometry"/>
                </mxCell>
                <mxCell id="409" value="Our Store" style="text;html=1;strokeColor=none;fillColor=none;align=left;verticalAlign=middle;whiteSpace=wrap;rounded=0;fontSize=13;fontColor=#000000;" parent="550" vertex="1">
                    <mxGeometry x="250" y="80" width="150" height="30" as="geometry"/>
                </mxCell>
                <mxCell id="410" value="Contact Us" style="text;html=1;strokeColor=none;fillColor=none;align=left;verticalAlign=middle;whiteSpace=wrap;rounded=0;fontSize=13;fontColor=#000000;" parent="550" vertex="1">
                    <mxGeometry x="70" y="80" width="150" height="30" as="geometry"/>
                </mxCell>
                <mxCell id="411" value="FAQ" style="text;html=1;strokeColor=none;fillColor=none;align=left;verticalAlign=middle;whiteSpace=wrap;rounded=0;fontSize=13;fontColor=#000000;" parent="550" vertex="1">
                    <mxGeometry x="70" y="60" width="150" height="30" as="geometry"/>
                </mxCell>
                <mxCell id="412" value="Shipping &amp;amp; Return" style="text;html=1;strokeColor=none;fillColor=none;align=left;verticalAlign=middle;whiteSpace=wrap;rounded=0;fontSize=13;fontColor=#000000;" parent="550" vertex="1">
                    <mxGeometry x="70" y="101.25" width="150" height="30" as="geometry"/>
                </mxCell>
                <mxCell id="161" value="" style="group" parent="550" vertex="1" connectable="0">
                    <mxGeometry x="260" y="170" width="330" height="30" as="geometry"/>
                </mxCell>
                <mxCell id="145" value="&amp;nbsp;Copyright&amp;nbsp; &amp;nbsp; &amp;nbsp;2024 | Developed By &lt;i&gt;Team (2)&lt;/i&gt;" style="text;html=1;align=center;verticalAlign=middle;whiteSpace=wrap;rounded=0;" parent="161" vertex="1">
                    <mxGeometry width="330" height="30" as="geometry"/>
                </mxCell>
                <mxCell id="144" value="" style="strokeColor=#0f0f0f;verticalLabelPosition=bottom;shadow=0;dashed=0;verticalAlign=top;strokeWidth=1;html=1;shape=mxgraph.mockup.misc.copyrightIcon;perimeterSpacing=0;" parent="161" vertex="1">
                    <mxGeometry x="105" y="10" width="10" height="10" as="geometry"/>
                </mxCell>
                <mxCell id="585" value="Forgot your password?" style="text;html=1;strokeColor=none;fillColor=none;align=left;verticalAlign=middle;whiteSpace=wrap;rounded=0;" vertex="1" parent="2">
                    <mxGeometry x="325" y="560" width="130" height="30" as="geometry"/>
                </mxCell>
                <mxCell id="415" value="" style="rounded=0;whiteSpace=wrap;html=1;fontSize=13;" parent="1" vertex="1">
                    <mxGeometry x="1100" y="590" width="360" height="1030" as="geometry"/>
                </mxCell>
                <mxCell id="428" value="" style="group" parent="1" vertex="1" connectable="0">
                    <mxGeometry x="1130" y="670" width="330" height="50" as="geometry"/>
                </mxCell>
                <mxCell id="429" value="" style="html=1;verticalLabelPosition=bottom;align=center;labelBackgroundColor=#ffffff;verticalAlign=top;strokeWidth=2;strokeColor=#000000;shadow=0;dashed=0;shape=mxgraph.ios7.icons.looking_glass;fontSize=15;fontColor=#000000;fillColor=none;" parent="428" vertex="1">
                    <mxGeometry x="270" y="4.939999999999998" width="20" height="20.12" as="geometry"/>
                </mxCell>
                <mxCell id="430" value="&amp;nbsp; Search" style="rounded=1;whiteSpace=wrap;html=1;strokeColor=#000000;fontSize=15;fontColor=#000000;fillColor=none;align=left;" parent="428" vertex="1">
                    <mxGeometry width="300" height="30" as="geometry"/>
                </mxCell>
                <mxCell id="431" value="" style="rounded=0;whiteSpace=wrap;html=1;strokeColor=default;fontSize=13;fontColor=#000000;fillColor=none;" parent="428" vertex="1">
                    <mxGeometry x="-30" y="-10" width="360" height="50" as="geometry"/>
                </mxCell>
                <mxCell id="551" value="" style="group" parent="1" vertex="1" connectable="0">
                    <mxGeometry x="1100" y="1160" width="360" height="460" as="geometry"/>
                </mxCell>
                <mxCell id="529" value="" style="rounded=0;whiteSpace=wrap;html=1;" parent="551" vertex="1">
                    <mxGeometry width="360" height="460" as="geometry"/>
                </mxCell>
                <mxCell id="530" value="&lt;b&gt;&lt;font style=&quot;font-size: 16px;&quot;&gt;Follow Us&lt;/font&gt;&lt;/b&gt;" style="text;html=1;align=left;verticalAlign=middle;whiteSpace=wrap;rounded=0;" parent="551" vertex="1">
                    <mxGeometry x="20" y="308.75" width="120" height="30" as="geometry"/>
                </mxCell>
                <mxCell id="531" value="" style="shape=image;html=1;verticalAlign=top;verticalLabelPosition=bottom;labelBackgroundColor=#ffffff;imageAspect=0;aspect=fixed;image=https://cdn2.iconfinder.com/data/icons/social-media-2285/512/1_Facebook_colored_svg_copy-128.png;fillColor=none;strokeColor=none;" parent="551" vertex="1">
                    <mxGeometry x="23" y="351.25" width="27.5" height="27.5" as="geometry"/>
                </mxCell>
                <mxCell id="532" value="" style="shape=image;html=1;verticalAlign=top;verticalLabelPosition=bottom;labelBackgroundColor=#ffffff;imageAspect=0;aspect=fixed;image=https://cdn3.iconfinder.com/data/icons/2018-social-media-logotypes/1000/2018_social_media_popular_app_logo_twitter-128.png;fillColor=none;strokeColor=none;" parent="551" vertex="1">
                    <mxGeometry x="68" y="351.25" width="27.5" height="27.5" as="geometry"/>
                </mxCell>
                <mxCell id="533" value="" style="shape=image;html=1;verticalAlign=top;verticalLabelPosition=bottom;labelBackgroundColor=#ffffff;imageAspect=0;aspect=fixed;image=https://cdn4.iconfinder.com/data/icons/social-media-flat-7/64/Social-media_Youtube-128.png;fillColor=none;strokeColor=none;" parent="551" vertex="1">
                    <mxGeometry x="111" y="350" width="30" height="30" as="geometry"/>
                </mxCell>
                <mxCell id="534" value="" style="dashed=0;outlineConnect=0;html=1;align=center;labelPosition=center;verticalLabelPosition=bottom;verticalAlign=top;shape=mxgraph.weblogos.instagram;fillColor=none;strokeColor=none;" parent="551" vertex="1">
                    <mxGeometry x="156" y="351.25" width="29" height="27.5" as="geometry"/>
                </mxCell>
                <mxCell id="536" value="&lt;b&gt;&lt;font style=&quot;font-size: 16px;&quot;&gt;Support&lt;/font&gt;&lt;/b&gt;" style="text;html=1;align=left;verticalAlign=middle;whiteSpace=wrap;rounded=0;" parent="551" vertex="1">
                    <mxGeometry x="20" y="20" width="120" height="30" as="geometry"/>
                </mxCell>
                <mxCell id="537" value="&lt;span style=&quot;font-size: 16px;&quot;&gt;&lt;b&gt;Corporate&lt;/b&gt;&lt;/span&gt;" style="text;html=1;align=left;verticalAlign=middle;whiteSpace=wrap;rounded=0;" parent="551" vertex="1">
                    <mxGeometry x="20" y="130" width="120" height="30" as="geometry"/>
                </mxCell>
                <mxCell id="538" value="&lt;b&gt;&lt;font style=&quot;font-size: 16px;&quot;&gt;Legal&lt;/font&gt;&lt;/b&gt;" style="text;html=1;align=left;verticalAlign=middle;whiteSpace=wrap;rounded=0;" parent="551" vertex="1">
                    <mxGeometry x="20" y="220" width="120" height="30" as="geometry"/>
                </mxCell>
                <mxCell id="539" value="Privacy Policy" style="text;html=1;strokeColor=none;fillColor=none;align=left;verticalAlign=middle;whiteSpace=wrap;rounded=0;fontSize=13;fontColor=#000000;" parent="551" vertex="1">
                    <mxGeometry x="20" y="250" width="150" height="30" as="geometry"/>
                </mxCell>
                <mxCell id="540" value="Terms &amp;amp; Conditions" style="text;html=1;strokeColor=none;fillColor=none;align=left;verticalAlign=middle;whiteSpace=wrap;rounded=0;fontSize=13;fontColor=#000000;" parent="551" vertex="1">
                    <mxGeometry x="20" y="270" width="150" height="30" as="geometry"/>
                </mxCell>
                <mxCell id="541" value="About Us" style="text;html=1;strokeColor=none;fillColor=none;align=left;verticalAlign=middle;whiteSpace=wrap;rounded=0;fontSize=13;fontColor=#000000;" parent="551" vertex="1">
                    <mxGeometry x="20" y="160" width="150" height="30" as="geometry"/>
                </mxCell>
                <mxCell id="542" value="Our Store" style="text;html=1;strokeColor=none;fillColor=none;align=left;verticalAlign=middle;whiteSpace=wrap;rounded=0;fontSize=13;fontColor=#000000;" parent="551" vertex="1">
                    <mxGeometry x="20" y="180" width="150" height="30" as="geometry"/>
                </mxCell>
                <mxCell id="543" value="Contact Us" style="text;html=1;strokeColor=none;fillColor=none;align=left;verticalAlign=middle;whiteSpace=wrap;rounded=0;fontSize=13;fontColor=#000000;" parent="551" vertex="1">
                    <mxGeometry x="20" y="70" width="150" height="30" as="geometry"/>
                </mxCell>
                <mxCell id="544" value="FAQ" style="text;html=1;strokeColor=none;fillColor=none;align=left;verticalAlign=middle;whiteSpace=wrap;rounded=0;fontSize=13;fontColor=#000000;" parent="551" vertex="1">
                    <mxGeometry x="20" y="50" width="150" height="30" as="geometry"/>
                </mxCell>
                <mxCell id="545" value="Shipping &amp;amp; Return" style="text;html=1;strokeColor=none;fillColor=none;align=left;verticalAlign=middle;whiteSpace=wrap;rounded=0;fontSize=13;fontColor=#000000;" parent="551" vertex="1">
                    <mxGeometry x="20" y="91.25" width="150" height="30" as="geometry"/>
                </mxCell>
                <mxCell id="546" value="" style="group;align=left;" parent="551" vertex="1" connectable="0">
                    <mxGeometry x="20" y="420" width="330" height="30" as="geometry"/>
                </mxCell>
                <mxCell id="547" value="&amp;nbsp;Copyright&amp;nbsp; &amp;nbsp; &amp;nbsp;2024 | Developed By &lt;i&gt;Team (2)&lt;/i&gt;" style="text;html=1;align=left;verticalAlign=middle;whiteSpace=wrap;rounded=0;" parent="546" vertex="1">
                    <mxGeometry width="330" height="30" as="geometry"/>
                </mxCell>
                <mxCell id="548" value="" style="strokeColor=#0f0f0f;verticalLabelPosition=bottom;shadow=0;dashed=0;verticalAlign=top;strokeWidth=1;html=1;shape=mxgraph.mockup.misc.copyrightIcon;perimeterSpacing=0;align=left;" parent="546" vertex="1">
                    <mxGeometry x="60" y="10" width="10" height="10" as="geometry"/>
                </mxCell>
                <mxCell id="535" value="" style="verticalLabelPosition=bottom;shadow=0;dashed=0;align=center;html=1;verticalAlign=top;strokeWidth=1;shape=mxgraph.mockup.markup.line;strokeColor=#999999;fontSize=16;fontColor=#000000;fillColor=#808080;" parent="546" vertex="1">
                    <mxGeometry y="-20" width="320" height="20" as="geometry"/>
                </mxCell>
                <mxCell id="579" value="Sign In" style="text;html=1;strokeColor=none;fillColor=none;align=left;verticalAlign=middle;whiteSpace=wrap;rounded=0;fontSize=22;" parent="1" vertex="1">
                    <mxGeometry x="1175" y="790" width="130" height="50" as="geometry"/>
                </mxCell>
                <mxCell id="580" value="" style="html=1;shadow=0;dashed=0;shape=mxgraph.bootstrap.rrect;rSize=5;strokeColor=#000000;html=1;whiteSpace=wrap;fillColor=#FFFFFF;fontColor=#000000;fontSize=19;" parent="1" vertex="1">
                    <mxGeometry x="1175" y="850" width="200" height="100" as="geometry"/>
                </mxCell>
                <mxCell id="581" value="Email" style="strokeColor=inherit;fillColor=inherit;gradientColor=inherit;fontColor=#B3B3B3;html=1;shadow=0;dashed=0;shape=mxgraph.bootstrap.topButton;rSize=5;perimeter=none;whiteSpace=wrap;resizeWidth=1;align=left;spacing=10;fontSize=17;" parent="580" vertex="1">
                    <mxGeometry width="200" height="52" relative="1" as="geometry"/>
                </mxCell>
                <mxCell id="582" value="Password" style="strokeColor=inherit;fillColor=inherit;gradientColor=inherit;fontColor=#B3B3B3;html=1;shadow=0;dashed=0;shape=mxgraph.bootstrap.bottomButton;rSize=5;perimeter=none;whiteSpace=wrap;resizeWidth=1;resizeHeight=0;align=left;spacing=10;fontSize=17;" parent="580" vertex="1">
                    <mxGeometry y="1" width="200" height="50" relative="1" as="geometry">
                        <mxPoint y="-50" as="offset"/>
                    </mxGeometry>
                </mxCell>
                <mxCell id="583" value="&lt;font color=&quot;#000000&quot; style=&quot;font-size: 16px;&quot;&gt;Sign in&lt;/font&gt;" style="rounded=1;whiteSpace=wrap;html=1;strokeColor=#000000;fontSize=16;fontColor=#B3B3B3;" parent="1" vertex="1">
                    <mxGeometry x="1175" y="990" width="200" height="30" as="geometry"/>
                </mxCell>
                <mxCell id="584" value="Remember me" style="rounded=1;align=left;verticalAlign=middle;fontStyle=0;fontSize=12;labelPosition=right;verticalLabelPosition=middle;spacingLeft=10;html=1;shadow=0;dashed=0;" parent="1" vertex="1">
                    <mxGeometry x="1175" y="960" width="12" height="12" as="geometry"/>
                </mxCell>
                <mxCell id="586" value="Forgot your password?" style="text;html=1;strokeColor=none;fillColor=none;align=left;verticalAlign=middle;whiteSpace=wrap;rounded=0;" vertex="1" parent="1">
                    <mxGeometry x="1175" y="1030" width="130" height="30" as="geometry"/>
                </mxCell>
                <mxCell id="617" value="" style="group" vertex="1" connectable="0" parent="1">
                    <mxGeometry x="210" y="590" width="850" height="70" as="geometry"/>
                </mxCell>
                <mxCell id="618" value="" style="rounded=0;whiteSpace=wrap;html=1;strokeColor=#000000;fillColor=none;" vertex="1" parent="617">
                    <mxGeometry width="850" height="70" as="geometry"/>
                </mxCell>
                <mxCell id="619" value="Gamestopia" style="text;strokeColor=none;fillColor=none;html=1;fontSize=24;fontStyle=1;verticalAlign=middle;align=center;" vertex="1" parent="617">
                    <mxGeometry x="15" y="15" width="160" height="40" as="geometry"/>
                </mxCell>
                <mxCell id="620" value="" style="group" vertex="1" connectable="0" parent="617">
                    <mxGeometry x="634" y="20" width="90" height="30" as="geometry"/>
                </mxCell>
                <mxCell id="621" value="" style="html=1;verticalLabelPosition=bottom;align=center;labelBackgroundColor=#ffffff;verticalAlign=top;strokeWidth=2;strokeColor=#000000;shadow=0;dashed=0;shape=mxgraph.ios7.icons.user;fillColor=none;" vertex="1" parent="620">
                    <mxGeometry width="30" height="30" as="geometry"/>
                </mxCell>
                <mxCell id="622" value="Hello,&lt;br&gt;Sign In" style="text;html=1;strokeColor=none;fillColor=none;align=left;verticalAlign=middle;whiteSpace=wrap;rounded=0;" vertex="1" parent="620">
                    <mxGeometry x="40" width="50" height="30" as="geometry"/>
                </mxCell>
                <mxCell id="623" value="" style="group" vertex="1" connectable="0" parent="617">
                    <mxGeometry x="528" y="20" width="80" height="30" as="geometry"/>
                </mxCell>
                <mxCell id="624" value="" style="html=1;verticalLabelPosition=bottom;align=center;labelBackgroundColor=#ffffff;verticalAlign=top;strokeWidth=2;strokeColor=#000000;shadow=0;dashed=0;shape=mxgraph.ios7.icons.globe;fontSize=15;fontColor=#000000;fillColor=none;" vertex="1" parent="623">
                    <mxGeometry width="30" height="30" as="geometry"/>
                </mxCell>
                <mxCell id="625" value="EN&amp;nbsp;" style="text;html=1;strokeColor=none;fillColor=none;align=left;verticalAlign=middle;whiteSpace=wrap;rounded=0;container=0;" vertex="1" parent="623">
                    <mxGeometry x="40" width="40" height="30" as="geometry"/>
                </mxCell>
                <mxCell id="626" value="" style="html=1;verticalLabelPosition=bottom;labelBackgroundColor=#ffffff;verticalAlign=top;shadow=0;dashed=0;strokeWidth=2;shape=mxgraph.ios7.misc.down;strokeColor=default;fontSize=15;fontColor=#000000;fillColor=none;container=0;" vertex="1" parent="623">
                    <mxGeometry x="63" y="14.120000000000005" width="8" height="3" as="geometry"/>
                </mxCell>
                <mxCell id="627" value="" style="group" vertex="1" connectable="0" parent="617">
                    <mxGeometry x="194" y="20.120000000000005" width="300" height="30" as="geometry"/>
                </mxCell>
                <mxCell id="628" value="" style="html=1;verticalLabelPosition=bottom;align=center;labelBackgroundColor=#ffffff;verticalAlign=top;strokeWidth=2;strokeColor=#000000;shadow=0;dashed=0;shape=mxgraph.ios7.icons.looking_glass;fontSize=15;fontColor=#000000;fillColor=none;" vertex="1" parent="627">
                    <mxGeometry x="270" y="4.939999999999998" width="20" height="20.12" as="geometry"/>
                </mxCell>
                <mxCell id="629" value="&amp;nbsp; Search" style="rounded=1;whiteSpace=wrap;html=1;strokeColor=#000000;fontSize=15;fontColor=#000000;fillColor=none;align=left;" vertex="1" parent="627">
                    <mxGeometry width="300" height="30" as="geometry"/>
                </mxCell>
                <mxCell id="630" value="" style="group" vertex="1" connectable="0" parent="617">
                    <mxGeometry x="750" y="20" width="87" height="30" as="geometry"/>
                </mxCell>
                <mxCell id="631" value="My Rentals" style="text;html=1;strokeColor=none;fillColor=none;align=left;verticalAlign=middle;whiteSpace=wrap;rounded=0;" vertex="1" parent="630">
                    <mxGeometry x="37" width="50" height="30" as="geometry"/>
                </mxCell>
                <mxCell id="632" value="" style="html=1;verticalLabelPosition=bottom;align=center;labelBackgroundColor=#ffffff;verticalAlign=top;strokeWidth=2;strokeColor=#000000;shadow=0;dashed=0;shape=mxgraph.ios7.icons.bookmark;" vertex="1" parent="630">
                    <mxGeometry width="22.5" height="30" as="geometry"/>
                </mxCell>
                <mxCell id="633" value="" style="group" vertex="1" connectable="0" parent="1">
                    <mxGeometry x="210" y="660" width="850" height="50" as="geometry"/>
                </mxCell>
                <mxCell id="634" value="" style="rounded=0;whiteSpace=wrap;html=1;strokeColor=default;fontColor=#000000;fillColor=none;" vertex="1" parent="633">
                    <mxGeometry width="850" height="50" as="geometry"/>
                </mxCell>
                <mxCell id="635" value="Trade-in" style="text;html=1;strokeColor=none;fillColor=none;align=center;verticalAlign=middle;whiteSpace=wrap;rounded=0;fontSize=17;" vertex="1" parent="633">
                    <mxGeometry x="294" y="10" width="100" height="30" as="geometry"/>
                </mxCell>
                <mxCell id="636" value="" style="group" vertex="1" connectable="0" parent="633">
                    <mxGeometry x="80" y="10" width="115" height="30" as="geometry"/>
                </mxCell>
                <mxCell id="637" value="All Games" style="text;html=1;strokeColor=none;fillColor=none;align=left;verticalAlign=middle;whiteSpace=wrap;rounded=0;fontSize=17;" vertex="1" parent="636">
                    <mxGeometry width="115" height="30" as="geometry"/>
                </mxCell>
                <mxCell id="638" value="" style="html=1;verticalLabelPosition=bottom;labelBackgroundColor=#ffffff;verticalAlign=top;shadow=0;dashed=0;strokeWidth=2;shape=mxgraph.ios7.misc.down;strokeColor=default;fontSize=15;fontColor=#000000;fillColor=none;container=0;" vertex="1" parent="636">
                    <mxGeometry x="95" y="13.5" width="8" height="3" as="geometry"/>
                </mxCell>
                <mxCell id="639" value="Pricing" style="text;html=1;strokeColor=none;fillColor=none;align=center;verticalAlign=middle;whiteSpace=wrap;rounded=0;fontSize=17;" vertex="1" parent="633">
                    <mxGeometry x="480" y="10" width="100" height="30" as="geometry"/>
                </mxCell>
                <mxCell id="640" value="How it works" style="text;html=1;strokeColor=none;fillColor=none;align=center;verticalAlign=middle;whiteSpace=wrap;rounded=0;fontSize=17;" vertex="1" parent="633">
                    <mxGeometry x="648.75" y="10" width="114" height="30" as="geometry"/>
                </mxCell>
                <mxCell id="641" value="" style="group" vertex="1" connectable="0" parent="1">
                    <mxGeometry x="1100" y="590" width="360" height="70" as="geometry"/>
                </mxCell>
                <mxCell id="642" value="" style="rounded=0;whiteSpace=wrap;html=1;strokeColor=default;fontSize=13;fontColor=#000000;fillColor=none;" vertex="1" parent="641">
                    <mxGeometry width="360" height="70" as="geometry"/>
                </mxCell>
                <mxCell id="643" value="Gamestopia" style="text;strokeColor=none;fillColor=none;html=1;fontSize=24;fontStyle=1;verticalAlign=middle;align=center;" vertex="1" parent="641">
                    <mxGeometry x="80" y="17.5" width="160" height="40" as="geometry"/>
                </mxCell>
                <mxCell id="644" value="" style="html=1;verticalLabelPosition=bottom;align=center;labelBackgroundColor=#ffffff;verticalAlign=top;strokeWidth=2;strokeColor=#000000;shadow=0;dashed=0;shape=mxgraph.ios7.icons.user;fillColor=none;" vertex="1" parent="641">
                    <mxGeometry x="260" y="20" width="30" height="30" as="geometry"/>
                </mxCell>
                <mxCell id="645" value="" style="html=1;verticalLabelPosition=bottom;labelBackgroundColor=#ffffff;verticalAlign=top;shadow=0;dashed=0;strokeWidth=2;shape=mxgraph.ios7.misc.options;fillColor=#222222;sketch=0;strokeColor=default;fontSize=13;fontColor=#000000;" vertex="1" parent="641">
                    <mxGeometry x="20" y="25" width="30" height="25" as="geometry"/>
                </mxCell>
                <mxCell id="646" value="" style="html=1;verticalLabelPosition=bottom;align=center;labelBackgroundColor=#ffffff;verticalAlign=top;strokeWidth=2;strokeColor=#000000;shadow=0;dashed=0;shape=mxgraph.ios7.icons.bookmark;" vertex="1" parent="641">
                    <mxGeometry x="310" y="20" width="22.5" height="30" as="geometry"/>
                </mxCell>
            </root>
        </mxGraphModel>
    </diagram>
</mxfile>